<mxfile host="app.diagrams.net" agent="Mozilla/5.0 (Windows NT 10.0; Win64; x64) AppleWebKit/537.36 (KHTML, like Gecko) Chrome/133.0.0.0 Safari/537.36" version="26.1.0">
  <diagram name="Page-1" id="3wjwon72aKvuTqPhMJ_2">
    <mxGraphModel dx="1707" dy="1603" grid="1" gridSize="10" guides="1" tooltips="1" connect="1" arrows="1" fold="1" page="1" pageScale="1" pageWidth="827" pageHeight="1169" math="0" shadow="0">
      <root>
        <mxCell id="0" />
        <mxCell id="1" parent="0" />
        <mxCell id="zXKOy_gRAemTQJg8xbW7-1" value="&lt;b&gt;&lt;i&gt;&lt;font style=&quot;font-size: 10px;&quot;&gt;Airline&lt;/font&gt;&lt;/i&gt;&lt;/b&gt;" style="whiteSpace=wrap;html=1;align=center;" vertex="1" parent="1">
          <mxGeometry x="120" y="120" width="100" height="40" as="geometry" />
        </mxCell>
        <mxCell id="zXKOy_gRAemTQJg8xbW7-2" value="&lt;b&gt;&lt;i&gt;&lt;font style=&quot;font-size: 10px;&quot;&gt;Number&lt;/font&gt;&lt;/i&gt;&lt;/b&gt;" style="ellipse;whiteSpace=wrap;html=1;align=center;fontStyle=4;" vertex="1" parent="1">
          <mxGeometry x="220" y="10" width="80" height="40" as="geometry" />
        </mxCell>
        <mxCell id="zXKOy_gRAemTQJg8xbW7-3" value="&lt;b&gt;&lt;i&gt;&lt;font style=&quot;font-size: 10px;&quot;&gt;Name&lt;/font&gt;&lt;/i&gt;&lt;/b&gt;" style="ellipse;whiteSpace=wrap;html=1;align=center;" vertex="1" parent="1">
          <mxGeometry x="120" y="10" width="70" height="40" as="geometry" />
        </mxCell>
        <mxCell id="zXKOy_gRAemTQJg8xbW7-4" value="&lt;b&gt;&lt;i&gt;&lt;font style=&quot;font-size: 10px;&quot;&gt;Address&lt;/font&gt;&lt;/i&gt;&lt;/b&gt;" style="ellipse;whiteSpace=wrap;html=1;align=center;" vertex="1" parent="1">
          <mxGeometry x="20" y="20" width="70" height="40" as="geometry" />
        </mxCell>
        <mxCell id="zXKOy_gRAemTQJg8xbW7-5" value="&lt;b&gt;&lt;i&gt;&lt;font style=&quot;font-size: 10px;&quot;&gt;Contact Person&lt;/font&gt;&lt;/i&gt;&lt;/b&gt;" style="ellipse;whiteSpace=wrap;html=1;align=center;" vertex="1" parent="1">
          <mxGeometry x="-50" y="80" width="100" height="40" as="geometry" />
        </mxCell>
        <mxCell id="zXKOy_gRAemTQJg8xbW7-6" value="&lt;b&gt;&lt;i&gt;&lt;font style=&quot;font-size: 10px;&quot;&gt;Phone Numbers&lt;/font&gt;&lt;/i&gt;&lt;/b&gt;" style="ellipse;shape=doubleEllipse;margin=3;whiteSpace=wrap;html=1;align=center;" vertex="1" parent="1">
          <mxGeometry x="-40" y="180" width="100" height="40" as="geometry" />
        </mxCell>
        <mxCell id="zXKOy_gRAemTQJg8xbW7-7" value="" style="endArrow=none;html=1;rounded=0;exitX=1;exitY=0.5;exitDx=0;exitDy=0;entryX=0;entryY=1;entryDx=0;entryDy=0;" edge="1" parent="1" source="zXKOy_gRAemTQJg8xbW7-6" target="zXKOy_gRAemTQJg8xbW7-1">
          <mxGeometry relative="1" as="geometry">
            <mxPoint x="200" y="200" as="sourcePoint" />
            <mxPoint x="360" y="200" as="targetPoint" />
          </mxGeometry>
        </mxCell>
        <mxCell id="zXKOy_gRAemTQJg8xbW7-8" value="" style="endArrow=none;html=1;rounded=0;exitX=1;exitY=0.5;exitDx=0;exitDy=0;entryX=0;entryY=0.5;entryDx=0;entryDy=0;" edge="1" parent="1" source="zXKOy_gRAemTQJg8xbW7-5" target="zXKOy_gRAemTQJg8xbW7-1">
          <mxGeometry relative="1" as="geometry">
            <mxPoint x="200" y="200" as="sourcePoint" />
            <mxPoint x="360" y="200" as="targetPoint" />
          </mxGeometry>
        </mxCell>
        <mxCell id="zXKOy_gRAemTQJg8xbW7-9" value="" style="endArrow=none;html=1;rounded=0;exitX=1;exitY=1;exitDx=0;exitDy=0;entryX=0;entryY=0;entryDx=0;entryDy=0;" edge="1" parent="1" source="zXKOy_gRAemTQJg8xbW7-4" target="zXKOy_gRAemTQJg8xbW7-1">
          <mxGeometry relative="1" as="geometry">
            <mxPoint x="200" y="200" as="sourcePoint" />
            <mxPoint x="360" y="200" as="targetPoint" />
          </mxGeometry>
        </mxCell>
        <mxCell id="zXKOy_gRAemTQJg8xbW7-10" value="" style="endArrow=none;html=1;rounded=0;exitX=0.5;exitY=1;exitDx=0;exitDy=0;entryX=0.4;entryY=0.025;entryDx=0;entryDy=0;entryPerimeter=0;" edge="1" parent="1" source="zXKOy_gRAemTQJg8xbW7-3" target="zXKOy_gRAemTQJg8xbW7-1">
          <mxGeometry relative="1" as="geometry">
            <mxPoint x="200" y="200" as="sourcePoint" />
            <mxPoint x="360" y="200" as="targetPoint" />
          </mxGeometry>
        </mxCell>
        <mxCell id="zXKOy_gRAemTQJg8xbW7-11" value="" style="endArrow=none;html=1;rounded=0;exitX=0.275;exitY=0.95;exitDx=0;exitDy=0;exitPerimeter=0;entryX=1;entryY=0;entryDx=0;entryDy=0;" edge="1" parent="1" source="zXKOy_gRAemTQJg8xbW7-2" target="zXKOy_gRAemTQJg8xbW7-1">
          <mxGeometry relative="1" as="geometry">
            <mxPoint x="200" y="200" as="sourcePoint" />
            <mxPoint x="360" y="200" as="targetPoint" />
          </mxGeometry>
        </mxCell>
        <mxCell id="zXKOy_gRAemTQJg8xbW7-12" value="&lt;b&gt;&lt;i&gt;&lt;font style=&quot;font-size: 10px;&quot;&gt;Employee&lt;/font&gt;&lt;/i&gt;&lt;/b&gt;" style="whiteSpace=wrap;html=1;align=center;" vertex="1" parent="1">
          <mxGeometry x="710" y="120" width="100" height="40" as="geometry" />
        </mxCell>
        <mxCell id="zXKOy_gRAemTQJg8xbW7-13" value="&lt;b&gt;&lt;i&gt;&lt;font style=&quot;font-size: 10px;&quot;&gt;Number&lt;/font&gt;&lt;/i&gt;&lt;/b&gt;" style="ellipse;whiteSpace=wrap;html=1;align=center;fontStyle=4;" vertex="1" parent="1">
          <mxGeometry x="810" y="20" width="80" height="40" as="geometry" />
        </mxCell>
        <mxCell id="zXKOy_gRAemTQJg8xbW7-14" value="" style="endArrow=none;html=1;rounded=0;entryX=0.325;entryY=1;entryDx=0;entryDy=0;entryPerimeter=0;exitX=1;exitY=0;exitDx=0;exitDy=0;" edge="1" parent="1" source="zXKOy_gRAemTQJg8xbW7-12" target="zXKOy_gRAemTQJg8xbW7-13">
          <mxGeometry relative="1" as="geometry">
            <mxPoint x="400" y="190" as="sourcePoint" />
            <mxPoint x="560" y="190" as="targetPoint" />
          </mxGeometry>
        </mxCell>
        <mxCell id="zXKOy_gRAemTQJg8xbW7-15" value="&lt;b&gt;&lt;i&gt;&lt;font style=&quot;font-size: 10px;&quot;&gt;Name&lt;/font&gt;&lt;/i&gt;&lt;/b&gt;" style="ellipse;whiteSpace=wrap;html=1;align=center;" vertex="1" parent="1">
          <mxGeometry x="730" y="20" width="60" height="40" as="geometry" />
        </mxCell>
        <mxCell id="zXKOy_gRAemTQJg8xbW7-16" value="" style="endArrow=none;html=1;rounded=0;entryX=0.5;entryY=1;entryDx=0;entryDy=0;" edge="1" parent="1" source="zXKOy_gRAemTQJg8xbW7-12" target="zXKOy_gRAemTQJg8xbW7-15">
          <mxGeometry relative="1" as="geometry">
            <mxPoint x="400" y="190" as="sourcePoint" />
            <mxPoint x="560" y="190" as="targetPoint" />
          </mxGeometry>
        </mxCell>
        <mxCell id="zXKOy_gRAemTQJg8xbW7-17" value="&lt;b&gt;&lt;i&gt;&lt;font style=&quot;font-size: 10px;&quot;&gt;Address&lt;/font&gt;&lt;/i&gt;&lt;/b&gt;" style="ellipse;whiteSpace=wrap;html=1;align=center;" vertex="1" parent="1">
          <mxGeometry x="630" y="30" width="70" height="40" as="geometry" />
        </mxCell>
        <mxCell id="zXKOy_gRAemTQJg8xbW7-18" value="" style="endArrow=none;html=1;rounded=0;entryX=1;entryY=1;entryDx=0;entryDy=0;exitX=0;exitY=0;exitDx=0;exitDy=0;" edge="1" parent="1" source="zXKOy_gRAemTQJg8xbW7-12" target="zXKOy_gRAemTQJg8xbW7-17">
          <mxGeometry relative="1" as="geometry">
            <mxPoint x="400" y="190" as="sourcePoint" />
            <mxPoint x="560" y="190" as="targetPoint" />
          </mxGeometry>
        </mxCell>
        <mxCell id="zXKOy_gRAemTQJg8xbW7-19" value="&lt;b&gt;&lt;i&gt;&lt;font style=&quot;font-size: 10px;&quot;&gt;BirthDay&lt;/font&gt;&lt;/i&gt;&lt;/b&gt;" style="ellipse;whiteSpace=wrap;html=1;align=center;" vertex="1" parent="1">
          <mxGeometry x="880" y="100" width="80" height="40" as="geometry" />
        </mxCell>
        <mxCell id="zXKOy_gRAemTQJg8xbW7-20" value="" style="endArrow=none;html=1;rounded=0;entryX=0;entryY=0.5;entryDx=0;entryDy=0;exitX=1;exitY=0.5;exitDx=0;exitDy=0;" edge="1" parent="1" source="zXKOy_gRAemTQJg8xbW7-12" target="zXKOy_gRAemTQJg8xbW7-19">
          <mxGeometry relative="1" as="geometry">
            <mxPoint x="490" y="200" as="sourcePoint" />
            <mxPoint x="650" y="200" as="targetPoint" />
          </mxGeometry>
        </mxCell>
        <mxCell id="zXKOy_gRAemTQJg8xbW7-21" value="&lt;b&gt;&lt;i&gt;&lt;font style=&quot;font-size: 10px;&quot;&gt;Day&lt;/font&gt;&lt;/i&gt;&lt;/b&gt;" style="ellipse;whiteSpace=wrap;html=1;align=center;" vertex="1" parent="1">
          <mxGeometry x="990" y="30" width="70" height="40" as="geometry" />
        </mxCell>
        <mxCell id="zXKOy_gRAemTQJg8xbW7-22" value="&lt;b&gt;&lt;i&gt;&lt;font style=&quot;font-size: 10px;&quot;&gt;Month&lt;/font&gt;&lt;/i&gt;&lt;/b&gt;" style="ellipse;whiteSpace=wrap;html=1;align=center;" vertex="1" parent="1">
          <mxGeometry x="1020" y="100" width="70" height="40" as="geometry" />
        </mxCell>
        <mxCell id="zXKOy_gRAemTQJg8xbW7-23" value="&lt;b&gt;&lt;i&gt;&lt;font style=&quot;font-size: 10px;&quot;&gt;Year&lt;/font&gt;&lt;/i&gt;&lt;/b&gt;" style="ellipse;whiteSpace=wrap;html=1;align=center;" vertex="1" parent="1">
          <mxGeometry x="1010" y="160" width="70" height="40" as="geometry" />
        </mxCell>
        <mxCell id="zXKOy_gRAemTQJg8xbW7-24" value="" style="endArrow=none;html=1;rounded=0;entryX=0;entryY=1;entryDx=0;entryDy=0;exitX=1;exitY=0;exitDx=0;exitDy=0;" edge="1" parent="1" source="zXKOy_gRAemTQJg8xbW7-19" target="zXKOy_gRAemTQJg8xbW7-21">
          <mxGeometry relative="1" as="geometry">
            <mxPoint x="740" y="200" as="sourcePoint" />
            <mxPoint x="900" y="200" as="targetPoint" />
          </mxGeometry>
        </mxCell>
        <mxCell id="zXKOy_gRAemTQJg8xbW7-25" value="" style="endArrow=none;html=1;rounded=0;entryX=0;entryY=0.5;entryDx=0;entryDy=0;exitX=1;exitY=0.5;exitDx=0;exitDy=0;" edge="1" parent="1" source="zXKOy_gRAemTQJg8xbW7-19" target="zXKOy_gRAemTQJg8xbW7-22">
          <mxGeometry relative="1" as="geometry">
            <mxPoint x="740" y="200" as="sourcePoint" />
            <mxPoint x="900" y="200" as="targetPoint" />
          </mxGeometry>
        </mxCell>
        <mxCell id="zXKOy_gRAemTQJg8xbW7-26" value="" style="endArrow=none;html=1;rounded=0;entryX=0;entryY=0;entryDx=0;entryDy=0;exitX=0.963;exitY=0.675;exitDx=0;exitDy=0;exitPerimeter=0;" edge="1" parent="1" source="zXKOy_gRAemTQJg8xbW7-19" target="zXKOy_gRAemTQJg8xbW7-23">
          <mxGeometry relative="1" as="geometry">
            <mxPoint x="740" y="200" as="sourcePoint" />
            <mxPoint x="900" y="200" as="targetPoint" />
          </mxGeometry>
        </mxCell>
        <mxCell id="zXKOy_gRAemTQJg8xbW7-27" value="&lt;b&gt;&lt;i&gt;&lt;font style=&quot;font-size: 10px;&quot;&gt;Gender&lt;/font&gt;&lt;/i&gt;&lt;/b&gt;" style="ellipse;whiteSpace=wrap;html=1;align=center;" vertex="1" parent="1">
          <mxGeometry x="860" y="180" width="80" height="40" as="geometry" />
        </mxCell>
        <mxCell id="zXKOy_gRAemTQJg8xbW7-28" value="" style="endArrow=none;html=1;rounded=0;exitX=1;exitY=1;exitDx=0;exitDy=0;entryX=0;entryY=0;entryDx=0;entryDy=0;" edge="1" parent="1" source="zXKOy_gRAemTQJg8xbW7-12" target="zXKOy_gRAemTQJg8xbW7-27">
          <mxGeometry relative="1" as="geometry">
            <mxPoint x="740" y="200" as="sourcePoint" />
            <mxPoint x="900" y="200" as="targetPoint" />
          </mxGeometry>
        </mxCell>
        <mxCell id="zXKOy_gRAemTQJg8xbW7-29" value="&lt;b&gt;&lt;i&gt;&lt;font style=&quot;font-size: 10px;&quot;&gt;Position&lt;/font&gt;&lt;/i&gt;&lt;/b&gt;" style="ellipse;whiteSpace=wrap;html=1;align=center;" vertex="1" parent="1">
          <mxGeometry x="820" y="240" width="80" height="40" as="geometry" />
        </mxCell>
        <mxCell id="zXKOy_gRAemTQJg8xbW7-30" value="" style="endArrow=none;html=1;rounded=0;exitX=0.75;exitY=1;exitDx=0;exitDy=0;entryX=0.313;entryY=0.025;entryDx=0;entryDy=0;entryPerimeter=0;" edge="1" parent="1" source="zXKOy_gRAemTQJg8xbW7-12" target="zXKOy_gRAemTQJg8xbW7-29">
          <mxGeometry relative="1" as="geometry">
            <mxPoint x="740" y="210" as="sourcePoint" />
            <mxPoint x="900" y="210" as="targetPoint" />
          </mxGeometry>
        </mxCell>
        <mxCell id="zXKOy_gRAemTQJg8xbW7-31" value="&lt;b&gt;&lt;i&gt;&lt;font style=&quot;font-size: 10px;&quot;&gt;Qualifications&lt;/font&gt;&lt;/i&gt;&lt;/b&gt;" style="ellipse;shape=doubleEllipse;margin=3;whiteSpace=wrap;html=1;align=center;" vertex="1" parent="1">
          <mxGeometry x="910" y="-10" width="100" height="40" as="geometry" />
        </mxCell>
        <mxCell id="zXKOy_gRAemTQJg8xbW7-32" value="" style="endArrow=none;html=1;rounded=0;exitX=1;exitY=0.25;exitDx=0;exitDy=0;entryX=0;entryY=1;entryDx=0;entryDy=0;" edge="1" parent="1" source="zXKOy_gRAemTQJg8xbW7-12" target="zXKOy_gRAemTQJg8xbW7-31">
          <mxGeometry relative="1" as="geometry">
            <mxPoint x="740" y="210" as="sourcePoint" />
            <mxPoint x="900" y="210" as="targetPoint" />
          </mxGeometry>
        </mxCell>
        <mxCell id="zXKOy_gRAemTQJg8xbW7-33" value="&lt;b&gt;&lt;i&gt;&lt;font style=&quot;font-size: 10px;&quot;&gt;Aircraft&lt;/font&gt;&lt;/i&gt;&lt;/b&gt;" style="whiteSpace=wrap;html=1;align=center;" vertex="1" parent="1">
          <mxGeometry x="100" y="490" width="100" height="40" as="geometry" />
        </mxCell>
        <mxCell id="zXKOy_gRAemTQJg8xbW7-34" value="&lt;b&gt;&lt;i&gt;&lt;font style=&quot;font-size: 10px;&quot;&gt;Number&lt;/font&gt;&lt;/i&gt;&lt;/b&gt;" style="ellipse;whiteSpace=wrap;html=1;align=center;fontStyle=4;" vertex="1" parent="1">
          <mxGeometry x="-50" y="460" width="80" height="40" as="geometry" />
        </mxCell>
        <mxCell id="zXKOy_gRAemTQJg8xbW7-35" value="&lt;b&gt;&lt;i&gt;&lt;font style=&quot;font-size: 10px;&quot;&gt;Capacity&lt;/font&gt;&lt;/i&gt;&lt;/b&gt;" style="ellipse;whiteSpace=wrap;html=1;align=center;" vertex="1" parent="1">
          <mxGeometry x="-60" y="530" width="70" height="40" as="geometry" />
        </mxCell>
        <mxCell id="zXKOy_gRAemTQJg8xbW7-36" value="" style="endArrow=none;html=1;rounded=0;exitX=1;exitY=0.5;exitDx=0;exitDy=0;" edge="1" parent="1" source="zXKOy_gRAemTQJg8xbW7-34" target="zXKOy_gRAemTQJg8xbW7-33">
          <mxGeometry relative="1" as="geometry">
            <mxPoint x="180" y="530" as="sourcePoint" />
            <mxPoint x="340" y="530" as="targetPoint" />
          </mxGeometry>
        </mxCell>
        <mxCell id="zXKOy_gRAemTQJg8xbW7-37" value="" style="endArrow=none;html=1;rounded=0;exitX=1;exitY=0.5;exitDx=0;exitDy=0;" edge="1" parent="1" source="zXKOy_gRAemTQJg8xbW7-35" target="zXKOy_gRAemTQJg8xbW7-33">
          <mxGeometry relative="1" as="geometry">
            <mxPoint x="180" y="390" as="sourcePoint" />
            <mxPoint x="340" y="390" as="targetPoint" />
          </mxGeometry>
        </mxCell>
        <mxCell id="zXKOy_gRAemTQJg8xbW7-38" value="&lt;b&gt;&lt;i&gt;&lt;font style=&quot;font-size: 10px;&quot;&gt;Model&lt;/font&gt;&lt;/i&gt;&lt;/b&gt;" style="ellipse;whiteSpace=wrap;html=1;align=center;" vertex="1" parent="1">
          <mxGeometry x="40" y="580" width="100" height="40" as="geometry" />
        </mxCell>
        <mxCell id="zXKOy_gRAemTQJg8xbW7-39" value="" style="endArrow=none;html=1;rounded=0;exitX=1;exitY=0;exitDx=0;exitDy=0;" edge="1" parent="1" source="zXKOy_gRAemTQJg8xbW7-38" target="zXKOy_gRAemTQJg8xbW7-33">
          <mxGeometry relative="1" as="geometry">
            <mxPoint x="220" y="410" as="sourcePoint" />
            <mxPoint x="380" y="410" as="targetPoint" />
          </mxGeometry>
        </mxCell>
        <mxCell id="zXKOy_gRAemTQJg8xbW7-41" value="&lt;b&gt;&lt;i&gt;&lt;font style=&quot;font-size: 10px;&quot;&gt;Transaction&lt;/font&gt;&lt;/i&gt;&lt;/b&gt;" style="whiteSpace=wrap;html=1;align=center;" vertex="1" parent="1">
          <mxGeometry x="440" y="310" width="100" height="40" as="geometry" />
        </mxCell>
        <mxCell id="zXKOy_gRAemTQJg8xbW7-44" value="&lt;b&gt;&lt;i&gt;&lt;font style=&quot;font-size: 10px;&quot;&gt;ID&lt;/font&gt;&lt;/i&gt;&lt;/b&gt;" style="ellipse;whiteSpace=wrap;html=1;align=center;fontStyle=4;" vertex="1" parent="1">
          <mxGeometry x="550" y="190" width="80" height="40" as="geometry" />
        </mxCell>
        <mxCell id="zXKOy_gRAemTQJg8xbW7-46" value="&lt;span style=&quot;font-size: 10px;&quot;&gt;&lt;b&gt;&lt;i&gt;description&lt;/i&gt;&lt;/b&gt;&lt;/span&gt;" style="ellipse;whiteSpace=wrap;html=1;align=center;" vertex="1" parent="1">
          <mxGeometry x="640" y="270" width="90" height="40" as="geometry" />
        </mxCell>
        <mxCell id="zXKOy_gRAemTQJg8xbW7-48" value="&lt;b&gt;&lt;i&gt;&lt;font style=&quot;font-size: 10px;&quot;&gt;Amount&lt;/font&gt;&lt;/i&gt;&lt;/b&gt;" style="ellipse;whiteSpace=wrap;html=1;align=center;" vertex="1" parent="1">
          <mxGeometry x="640" y="320" width="90" height="40" as="geometry" />
        </mxCell>
        <mxCell id="zXKOy_gRAemTQJg8xbW7-49" value="&lt;b&gt;&lt;i&gt;&lt;font style=&quot;font-size: 10px;&quot;&gt;Date&lt;/font&gt;&lt;/i&gt;&lt;/b&gt;" style="ellipse;whiteSpace=wrap;html=1;align=center;" vertex="1" parent="1">
          <mxGeometry x="630" y="220" width="70" height="40" as="geometry" />
        </mxCell>
        <mxCell id="zXKOy_gRAemTQJg8xbW7-50" value="" style="endArrow=none;html=1;rounded=0;entryX=0;entryY=1;entryDx=0;entryDy=0;exitX=1;exitY=0;exitDx=0;exitDy=0;" edge="1" parent="1" source="zXKOy_gRAemTQJg8xbW7-41" target="zXKOy_gRAemTQJg8xbW7-44">
          <mxGeometry relative="1" as="geometry">
            <mxPoint x="320" y="250" as="sourcePoint" />
            <mxPoint x="480" y="250" as="targetPoint" />
          </mxGeometry>
        </mxCell>
        <mxCell id="zXKOy_gRAemTQJg8xbW7-51" value="" style="endArrow=none;html=1;rounded=0;entryX=0;entryY=0.5;entryDx=0;entryDy=0;exitX=1;exitY=0.25;exitDx=0;exitDy=0;" edge="1" parent="1" source="zXKOy_gRAemTQJg8xbW7-41" target="zXKOy_gRAemTQJg8xbW7-49">
          <mxGeometry relative="1" as="geometry">
            <mxPoint x="320" y="250" as="sourcePoint" />
            <mxPoint x="480" y="250" as="targetPoint" />
          </mxGeometry>
        </mxCell>
        <mxCell id="zXKOy_gRAemTQJg8xbW7-52" value="" style="endArrow=none;html=1;rounded=0;entryX=0;entryY=0.5;entryDx=0;entryDy=0;exitX=1;exitY=0.5;exitDx=0;exitDy=0;" edge="1" parent="1" source="zXKOy_gRAemTQJg8xbW7-41" target="zXKOy_gRAemTQJg8xbW7-46">
          <mxGeometry relative="1" as="geometry">
            <mxPoint x="320" y="250" as="sourcePoint" />
            <mxPoint x="480" y="250" as="targetPoint" />
          </mxGeometry>
        </mxCell>
        <mxCell id="zXKOy_gRAemTQJg8xbW7-53" value="" style="endArrow=none;html=1;rounded=0;entryX=0;entryY=0.5;entryDx=0;entryDy=0;exitX=1;exitY=1;exitDx=0;exitDy=0;" edge="1" parent="1" source="zXKOy_gRAemTQJg8xbW7-41" target="zXKOy_gRAemTQJg8xbW7-48">
          <mxGeometry relative="1" as="geometry">
            <mxPoint x="320" y="250" as="sourcePoint" />
            <mxPoint x="480" y="250" as="targetPoint" />
          </mxGeometry>
        </mxCell>
        <mxCell id="zXKOy_gRAemTQJg8xbW7-56" value="&lt;b&gt;&lt;i&gt;&lt;font style=&quot;font-size: 10px;&quot;&gt;Pas Number&lt;/font&gt;&lt;/i&gt;&lt;/b&gt;" style="ellipse;whiteSpace=wrap;html=1;align=center;fontStyle=4;" vertex="1" parent="1">
          <mxGeometry x="913" y="420" width="80" height="40" as="geometry" />
        </mxCell>
        <mxCell id="zXKOy_gRAemTQJg8xbW7-58" value="&lt;b&gt;&lt;i&gt;&lt;font style=&quot;font-size: 10px;&quot;&gt;Assigtance Pilot&lt;/font&gt;&lt;/i&gt;&lt;/b&gt;" style="ellipse;whiteSpace=wrap;html=1;align=center;" vertex="1" parent="1">
          <mxGeometry x="933" y="520" width="90" height="40" as="geometry" />
        </mxCell>
        <mxCell id="zXKOy_gRAemTQJg8xbW7-60" value="&lt;b&gt;&lt;i&gt;&lt;font style=&quot;font-size: 10px;&quot;&gt;Mijor Pilot&lt;/font&gt;&lt;/i&gt;&lt;/b&gt;" style="ellipse;whiteSpace=wrap;html=1;align=center;" vertex="1" parent="1">
          <mxGeometry x="973" y="470" width="70" height="40" as="geometry" />
        </mxCell>
        <mxCell id="zXKOy_gRAemTQJg8xbW7-61" value="" style="endArrow=none;html=1;rounded=0;entryX=0;entryY=1;entryDx=0;entryDy=0;exitX=1;exitY=0;exitDx=0;exitDy=0;" edge="1" parent="1" target="zXKOy_gRAemTQJg8xbW7-56">
          <mxGeometry relative="1" as="geometry">
            <mxPoint x="863" y="520" as="sourcePoint" />
            <mxPoint x="803" y="460" as="targetPoint" />
          </mxGeometry>
        </mxCell>
        <mxCell id="zXKOy_gRAemTQJg8xbW7-62" value="" style="endArrow=none;html=1;rounded=0;entryX=0;entryY=0.5;entryDx=0;entryDy=0;exitX=1;exitY=0.25;exitDx=0;exitDy=0;" edge="1" parent="1" target="zXKOy_gRAemTQJg8xbW7-60">
          <mxGeometry relative="1" as="geometry">
            <mxPoint x="863" y="530" as="sourcePoint" />
            <mxPoint x="803" y="460" as="targetPoint" />
          </mxGeometry>
        </mxCell>
        <mxCell id="zXKOy_gRAemTQJg8xbW7-63" value="" style="endArrow=none;html=1;rounded=0;entryX=0;entryY=0.5;entryDx=0;entryDy=0;exitX=1;exitY=0.5;exitDx=0;exitDy=0;" edge="1" parent="1" target="zXKOy_gRAemTQJg8xbW7-58">
          <mxGeometry relative="1" as="geometry">
            <mxPoint x="863" y="540" as="sourcePoint" />
            <mxPoint x="803" y="460" as="targetPoint" />
          </mxGeometry>
        </mxCell>
        <mxCell id="zXKOy_gRAemTQJg8xbW7-66" value="&lt;b&gt;&lt;i&gt;&lt;font style=&quot;font-size: 10px;&quot;&gt;Crew&lt;/font&gt;&lt;/i&gt;&lt;/b&gt;" style="shape=ext;margin=3;double=1;whiteSpace=wrap;html=1;align=center;" vertex="1" parent="1">
          <mxGeometry x="780" y="520" width="100" height="40" as="geometry" />
        </mxCell>
        <mxCell id="zXKOy_gRAemTQJg8xbW7-67" value="&lt;b&gt;&lt;i&gt;&lt;font style=&quot;font-size: 10px;&quot;&gt;Hostesses&lt;/font&gt;&lt;/i&gt;&lt;/b&gt;" style="ellipse;shape=doubleEllipse;margin=3;whiteSpace=wrap;html=1;align=center;" vertex="1" parent="1">
          <mxGeometry x="903" y="600" width="100" height="40" as="geometry" />
        </mxCell>
        <mxCell id="zXKOy_gRAemTQJg8xbW7-68" value="" style="endArrow=none;html=1;rounded=0;entryX=0.23;entryY=0.175;entryDx=0;entryDy=0;entryPerimeter=0;exitX=1;exitY=1;exitDx=0;exitDy=0;" edge="1" parent="1" source="zXKOy_gRAemTQJg8xbW7-66" target="zXKOy_gRAemTQJg8xbW7-67">
          <mxGeometry relative="1" as="geometry">
            <mxPoint x="613" y="580" as="sourcePoint" />
            <mxPoint x="773" y="580" as="targetPoint" />
          </mxGeometry>
        </mxCell>
        <mxCell id="zXKOy_gRAemTQJg8xbW7-69" value="&lt;b&gt;&lt;i&gt;&lt;font style=&quot;font-size: 10px;&quot;&gt;Route&lt;/font&gt;&lt;/i&gt;&lt;/b&gt;" style="whiteSpace=wrap;html=1;align=center;" vertex="1" parent="1">
          <mxGeometry x="310" y="690" width="100" height="40" as="geometry" />
        </mxCell>
        <mxCell id="zXKOy_gRAemTQJg8xbW7-70" value="&lt;b&gt;&lt;i&gt;&lt;font style=&quot;font-size: 10px;&quot;&gt;Number&lt;/font&gt;&lt;/i&gt;&lt;/b&gt;" style="ellipse;whiteSpace=wrap;html=1;align=center;fontStyle=4;" vertex="1" parent="1">
          <mxGeometry x="460" y="590" width="80" height="40" as="geometry" />
        </mxCell>
        <mxCell id="zXKOy_gRAemTQJg8xbW7-71" value="&lt;span style=&quot;font-size: 10px;&quot;&gt;&lt;b&gt;&lt;i&gt;classification&lt;/i&gt;&lt;/b&gt;&lt;/span&gt;" style="ellipse;whiteSpace=wrap;html=1;align=center;" vertex="1" parent="1">
          <mxGeometry x="420" y="800" width="70" height="40" as="geometry" />
        </mxCell>
        <mxCell id="zXKOy_gRAemTQJg8xbW7-72" value="&lt;span style=&quot;font-size: 10px;&quot;&gt;&lt;b&gt;&lt;i&gt;destination&lt;/i&gt;&lt;/b&gt;&lt;/span&gt;" style="ellipse;whiteSpace=wrap;html=1;align=center;" vertex="1" parent="1">
          <mxGeometry x="480" y="690" width="90" height="40" as="geometry" />
        </mxCell>
        <mxCell id="zXKOy_gRAemTQJg8xbW7-73" value="&lt;span style=&quot;font-size: 10px;&quot;&gt;&lt;b&gt;&lt;i&gt;distance&lt;/i&gt;&lt;/b&gt;&lt;/span&gt;" style="ellipse;whiteSpace=wrap;html=1;align=center;" vertex="1" parent="1">
          <mxGeometry x="480" y="760" width="90" height="40" as="geometry" />
        </mxCell>
        <mxCell id="zXKOy_gRAemTQJg8xbW7-74" value="&lt;span style=&quot;font-size: 10px;&quot;&gt;&lt;b&gt;&lt;i&gt;Origan&lt;/i&gt;&lt;/b&gt;&lt;/span&gt;" style="ellipse;whiteSpace=wrap;html=1;align=center;" vertex="1" parent="1">
          <mxGeometry x="520" y="640" width="70" height="40" as="geometry" />
        </mxCell>
        <mxCell id="zXKOy_gRAemTQJg8xbW7-75" value="" style="endArrow=none;html=1;rounded=0;entryX=0;entryY=1;entryDx=0;entryDy=0;exitX=1;exitY=0;exitDx=0;exitDy=0;" edge="1" parent="1" source="zXKOy_gRAemTQJg8xbW7-69" target="zXKOy_gRAemTQJg8xbW7-70">
          <mxGeometry relative="1" as="geometry">
            <mxPoint x="190" y="630" as="sourcePoint" />
            <mxPoint x="350" y="630" as="targetPoint" />
          </mxGeometry>
        </mxCell>
        <mxCell id="zXKOy_gRAemTQJg8xbW7-76" value="" style="endArrow=none;html=1;rounded=0;entryX=0;entryY=0.5;entryDx=0;entryDy=0;exitX=1;exitY=0.25;exitDx=0;exitDy=0;" edge="1" parent="1" source="zXKOy_gRAemTQJg8xbW7-69" target="zXKOy_gRAemTQJg8xbW7-74">
          <mxGeometry relative="1" as="geometry">
            <mxPoint x="190" y="630" as="sourcePoint" />
            <mxPoint x="350" y="630" as="targetPoint" />
          </mxGeometry>
        </mxCell>
        <mxCell id="zXKOy_gRAemTQJg8xbW7-77" value="" style="endArrow=none;html=1;rounded=0;entryX=0;entryY=0.5;entryDx=0;entryDy=0;exitX=1;exitY=0.5;exitDx=0;exitDy=0;" edge="1" parent="1" source="zXKOy_gRAemTQJg8xbW7-69" target="zXKOy_gRAemTQJg8xbW7-72">
          <mxGeometry relative="1" as="geometry">
            <mxPoint x="190" y="630" as="sourcePoint" />
            <mxPoint x="350" y="630" as="targetPoint" />
          </mxGeometry>
        </mxCell>
        <mxCell id="zXKOy_gRAemTQJg8xbW7-78" value="" style="endArrow=none;html=1;rounded=0;entryX=0;entryY=0.5;entryDx=0;entryDy=0;exitX=1;exitY=1;exitDx=0;exitDy=0;" edge="1" parent="1" source="zXKOy_gRAemTQJg8xbW7-69" target="zXKOy_gRAemTQJg8xbW7-73">
          <mxGeometry relative="1" as="geometry">
            <mxPoint x="190" y="630" as="sourcePoint" />
            <mxPoint x="350" y="630" as="targetPoint" />
          </mxGeometry>
        </mxCell>
        <mxCell id="zXKOy_gRAemTQJg8xbW7-79" value="" style="endArrow=none;html=1;rounded=0;entryX=0;entryY=0;entryDx=0;entryDy=0;exitX=0.84;exitY=1;exitDx=0;exitDy=0;exitPerimeter=0;" edge="1" parent="1" source="zXKOy_gRAemTQJg8xbW7-69" target="zXKOy_gRAemTQJg8xbW7-71">
          <mxGeometry relative="1" as="geometry">
            <mxPoint x="190" y="630" as="sourcePoint" />
            <mxPoint x="350" y="630" as="targetPoint" />
          </mxGeometry>
        </mxCell>
        <mxCell id="zXKOy_gRAemTQJg8xbW7-80" value="&lt;b&gt;&lt;i&gt;&lt;font style=&quot;font-size: 10px;&quot;&gt;Works&lt;/font&gt;&lt;/i&gt;&lt;/b&gt;" style="shape=rhombus;perimeter=rhombusPerimeter;whiteSpace=wrap;html=1;align=center;" vertex="1" parent="1">
          <mxGeometry x="420" y="115" width="90" height="50" as="geometry" />
        </mxCell>
        <mxCell id="zXKOy_gRAemTQJg8xbW7-81" value="" style="endArrow=none;html=1;rounded=0;entryX=0;entryY=0.5;entryDx=0;entryDy=0;exitX=1;exitY=0.5;exitDx=0;exitDy=0;" edge="1" parent="1" source="zXKOy_gRAemTQJg8xbW7-80" target="zXKOy_gRAemTQJg8xbW7-12">
          <mxGeometry relative="1" as="geometry">
            <mxPoint x="360" y="260" as="sourcePoint" />
            <mxPoint x="520" y="260" as="targetPoint" />
          </mxGeometry>
        </mxCell>
        <mxCell id="zXKOy_gRAemTQJg8xbW7-82" value="" style="endArrow=none;html=1;rounded=0;exitX=1;exitY=0.5;exitDx=0;exitDy=0;entryX=0;entryY=0.5;entryDx=0;entryDy=0;" edge="1" parent="1" source="zXKOy_gRAemTQJg8xbW7-1" target="zXKOy_gRAemTQJg8xbW7-80">
          <mxGeometry relative="1" as="geometry">
            <mxPoint x="440" y="290" as="sourcePoint" />
            <mxPoint x="600" y="290" as="targetPoint" />
          </mxGeometry>
        </mxCell>
        <mxCell id="zXKOy_gRAemTQJg8xbW7-83" value="&lt;b&gt;&lt;i&gt;&lt;font style=&quot;font-size: 10px;&quot;&gt;1&lt;/font&gt;&lt;/i&gt;&lt;/b&gt;" style="text;strokeColor=none;align=center;fillColor=none;html=1;verticalAlign=middle;whiteSpace=wrap;rounded=0;" vertex="1" parent="1">
          <mxGeometry x="250" y="145" width="20" height="20" as="geometry" />
        </mxCell>
        <mxCell id="zXKOy_gRAemTQJg8xbW7-84" value="" style="endArrow=none;html=1;rounded=0;entryX=0;entryY=0.75;entryDx=0;entryDy=0;exitX=0.911;exitY=0.6;exitDx=0;exitDy=0;exitPerimeter=0;" edge="1" parent="1" source="zXKOy_gRAemTQJg8xbW7-80" target="zXKOy_gRAemTQJg8xbW7-12">
          <mxGeometry relative="1" as="geometry">
            <mxPoint x="440" y="290" as="sourcePoint" />
            <mxPoint x="600" y="290" as="targetPoint" />
          </mxGeometry>
        </mxCell>
        <mxCell id="zXKOy_gRAemTQJg8xbW7-85" value="&lt;b&gt;&lt;i&gt;&lt;font style=&quot;font-size: 10px;&quot;&gt;M&lt;/font&gt;&lt;/i&gt;&lt;/b&gt;" style="text;strokeColor=none;align=center;fillColor=none;html=1;verticalAlign=middle;whiteSpace=wrap;rounded=0;" vertex="1" parent="1">
          <mxGeometry x="670" y="155" width="20" height="20" as="geometry" />
        </mxCell>
        <mxCell id="zXKOy_gRAemTQJg8xbW7-86" value="" style="endArrow=none;html=1;rounded=0;exitX=1;exitY=0.75;exitDx=0;exitDy=0;entryX=0.156;entryY=0.66;entryDx=0;entryDy=0;entryPerimeter=0;" edge="1" parent="1" source="zXKOy_gRAemTQJg8xbW7-1" target="zXKOy_gRAemTQJg8xbW7-80">
          <mxGeometry relative="1" as="geometry">
            <mxPoint x="440" y="290" as="sourcePoint" />
            <mxPoint x="600" y="290" as="targetPoint" />
          </mxGeometry>
        </mxCell>
        <mxCell id="zXKOy_gRAemTQJg8xbW7-87" value="&lt;b&gt;&lt;i&gt;&lt;font style=&quot;font-size: 10px;&quot;&gt;Owns&lt;/font&gt;&lt;/i&gt;&lt;/b&gt;" style="shape=rhombus;perimeter=rhombusPerimeter;whiteSpace=wrap;html=1;align=center;" vertex="1" parent="1">
          <mxGeometry x="115" y="320" width="80" height="60" as="geometry" />
        </mxCell>
        <mxCell id="zXKOy_gRAemTQJg8xbW7-88" value="" style="endArrow=none;html=1;rounded=0;exitX=0.5;exitY=0;exitDx=0;exitDy=0;entryX=0.5;entryY=1;entryDx=0;entryDy=0;" edge="1" parent="1" source="zXKOy_gRAemTQJg8xbW7-87" target="zXKOy_gRAemTQJg8xbW7-1">
          <mxGeometry relative="1" as="geometry">
            <mxPoint x="380" y="290" as="sourcePoint" />
            <mxPoint x="540" y="290" as="targetPoint" />
          </mxGeometry>
        </mxCell>
        <mxCell id="zXKOy_gRAemTQJg8xbW7-89" value="" style="endArrow=none;html=1;rounded=0;exitX=0.5;exitY=1;exitDx=0;exitDy=0;entryX=0.5;entryY=0;entryDx=0;entryDy=0;" edge="1" parent="1" source="zXKOy_gRAemTQJg8xbW7-87" target="zXKOy_gRAemTQJg8xbW7-33">
          <mxGeometry relative="1" as="geometry">
            <mxPoint x="380" y="290" as="sourcePoint" />
            <mxPoint x="140" y="460" as="targetPoint" />
          </mxGeometry>
        </mxCell>
        <mxCell id="zXKOy_gRAemTQJg8xbW7-90" value="&lt;b&gt;&lt;i&gt;&lt;font style=&quot;font-size: 10px;&quot;&gt;M&lt;/font&gt;&lt;/i&gt;&lt;/b&gt;" style="text;strokeColor=none;align=center;fillColor=none;html=1;verticalAlign=middle;whiteSpace=wrap;rounded=0;" vertex="1" parent="1">
          <mxGeometry x="160" y="460" width="20" height="20" as="geometry" />
        </mxCell>
        <mxCell id="zXKOy_gRAemTQJg8xbW7-91" value="" style="endArrow=none;html=1;rounded=0;exitX=0.6;exitY=0.95;exitDx=0;exitDy=0;exitPerimeter=0;" edge="1" parent="1" source="zXKOy_gRAemTQJg8xbW7-1" target="zXKOy_gRAemTQJg8xbW7-87">
          <mxGeometry relative="1" as="geometry">
            <mxPoint x="340" y="280" as="sourcePoint" />
            <mxPoint x="500" y="280" as="targetPoint" />
          </mxGeometry>
        </mxCell>
        <mxCell id="zXKOy_gRAemTQJg8xbW7-92" value="&lt;b&gt;&lt;i&gt;&lt;font style=&quot;font-size: 10px;&quot;&gt;1&lt;/font&gt;&lt;/i&gt;&lt;/b&gt;" style="text;strokeColor=none;align=center;fillColor=none;html=1;verticalAlign=middle;whiteSpace=wrap;rounded=0;" vertex="1" parent="1">
          <mxGeometry x="180" y="180" width="20" height="20" as="geometry" />
        </mxCell>
        <mxCell id="zXKOy_gRAemTQJg8xbW7-93" value="" style="endArrow=none;html=1;rounded=0;exitX=0.613;exitY=0.917;exitDx=0;exitDy=0;exitPerimeter=0;entryX=0.58;entryY=-0.05;entryDx=0;entryDy=0;entryPerimeter=0;" edge="1" parent="1" source="zXKOy_gRAemTQJg8xbW7-87" target="zXKOy_gRAemTQJg8xbW7-33">
          <mxGeometry relative="1" as="geometry">
            <mxPoint x="340" y="350" as="sourcePoint" />
            <mxPoint x="500" y="350" as="targetPoint" />
          </mxGeometry>
        </mxCell>
        <mxCell id="zXKOy_gRAemTQJg8xbW7-94" value="&lt;b&gt;&lt;font style=&quot;font-size: 10px;&quot;&gt;assigned&lt;/font&gt;&lt;/b&gt;" style="shape=rhombus;perimeter=rhombusPerimeter;whiteSpace=wrap;html=1;align=center;" vertex="1" parent="1">
          <mxGeometry x="260" y="555" width="90" height="60" as="geometry" />
        </mxCell>
        <mxCell id="zXKOy_gRAemTQJg8xbW7-95" value="" style="endArrow=none;html=1;rounded=0;exitX=1;exitY=0.75;exitDx=0;exitDy=0;entryX=0.5;entryY=0;entryDx=0;entryDy=0;" edge="1" parent="1" source="zXKOy_gRAemTQJg8xbW7-33" target="zXKOy_gRAemTQJg8xbW7-94">
          <mxGeometry relative="1" as="geometry">
            <mxPoint x="360" y="510" as="sourcePoint" />
            <mxPoint x="520" y="510" as="targetPoint" />
          </mxGeometry>
        </mxCell>
        <mxCell id="zXKOy_gRAemTQJg8xbW7-96" value="" style="endArrow=none;html=1;rounded=0;exitX=0.5;exitY=1;exitDx=0;exitDy=0;entryX=0;entryY=0;entryDx=0;entryDy=0;" edge="1" parent="1" source="zXKOy_gRAemTQJg8xbW7-94" target="zXKOy_gRAemTQJg8xbW7-69">
          <mxGeometry relative="1" as="geometry">
            <mxPoint x="360" y="510" as="sourcePoint" />
            <mxPoint x="520" y="510" as="targetPoint" />
          </mxGeometry>
        </mxCell>
        <mxCell id="zXKOy_gRAemTQJg8xbW7-97" value="&lt;b&gt;&lt;i&gt;&lt;font style=&quot;font-size: 10px;&quot;&gt;M&lt;/font&gt;&lt;/i&gt;&lt;/b&gt;" style="text;strokeColor=none;align=center;fillColor=none;html=1;verticalAlign=middle;whiteSpace=wrap;rounded=0;" vertex="1" parent="1">
          <mxGeometry x="320" y="640" width="20" height="20" as="geometry" />
        </mxCell>
        <mxCell id="zXKOy_gRAemTQJg8xbW7-98" value="" style="endArrow=none;html=1;rounded=0;exitX=1;exitY=1;exitDx=0;exitDy=0;entryX=0.378;entryY=0.1;entryDx=0;entryDy=0;entryPerimeter=0;" edge="1" parent="1" source="zXKOy_gRAemTQJg8xbW7-33" target="zXKOy_gRAemTQJg8xbW7-94">
          <mxGeometry relative="1" as="geometry">
            <mxPoint x="360" y="510" as="sourcePoint" />
            <mxPoint x="520" y="510" as="targetPoint" />
          </mxGeometry>
        </mxCell>
        <mxCell id="zXKOy_gRAemTQJg8xbW7-99" value="&lt;b&gt;&lt;i&gt;&lt;font style=&quot;font-size: 10px;&quot;&gt;M&lt;/font&gt;&lt;/i&gt;&lt;/b&gt;" style="text;strokeColor=none;align=center;fillColor=none;html=1;verticalAlign=middle;whiteSpace=wrap;rounded=0;" vertex="1" parent="1">
          <mxGeometry x="210" y="500" width="20" height="20" as="geometry" />
        </mxCell>
        <mxCell id="zXKOy_gRAemTQJg8xbW7-100" value="&lt;b&gt;&lt;i&gt;&lt;font style=&quot;font-size: 10px;&quot;&gt;Works&lt;/font&gt;&lt;/i&gt;&lt;/b&gt;" style="shape=rhombus;perimeter=rhombusPerimeter;whiteSpace=wrap;html=1;align=center;" vertex="1" parent="1">
          <mxGeometry x="140" y="660" width="80" height="60" as="geometry" />
        </mxCell>
        <mxCell id="zXKOy_gRAemTQJg8xbW7-102" value="" style="endArrow=none;html=1;rounded=0;exitX=1;exitY=0.5;exitDx=0;exitDy=0;entryX=0;entryY=0.5;entryDx=0;entryDy=0;" edge="1" parent="1" source="zXKOy_gRAemTQJg8xbW7-100" target="zXKOy_gRAemTQJg8xbW7-69">
          <mxGeometry relative="1" as="geometry">
            <mxPoint x="260" y="550" as="sourcePoint" />
            <mxPoint x="420" y="550" as="targetPoint" />
          </mxGeometry>
        </mxCell>
        <mxCell id="zXKOy_gRAemTQJg8xbW7-103" value="" style="endArrow=none;html=1;rounded=0;exitX=0.75;exitY=1;exitDx=0;exitDy=0;entryX=0.5;entryY=0;entryDx=0;entryDy=0;" edge="1" parent="1" source="zXKOy_gRAemTQJg8xbW7-33" target="zXKOy_gRAemTQJg8xbW7-100">
          <mxGeometry relative="1" as="geometry">
            <mxPoint x="260" y="550" as="sourcePoint" />
            <mxPoint x="420" y="550" as="targetPoint" />
          </mxGeometry>
        </mxCell>
        <mxCell id="zXKOy_gRAemTQJg8xbW7-104" value="&lt;b&gt;&lt;i&gt;&lt;font style=&quot;font-size: 10px;&quot;&gt;M&lt;/font&gt;&lt;/i&gt;&lt;/b&gt;" style="text;strokeColor=none;align=center;fillColor=none;html=1;verticalAlign=middle;whiteSpace=wrap;rounded=0;" vertex="1" parent="1">
          <mxGeometry x="250" y="700" width="20" height="20" as="geometry" />
        </mxCell>
        <mxCell id="zXKOy_gRAemTQJg8xbW7-105" value="&lt;b&gt;&lt;i&gt;&lt;font style=&quot;font-size: 10px;&quot;&gt;M&lt;/font&gt;&lt;/i&gt;&lt;/b&gt;" style="text;strokeColor=none;align=center;fillColor=none;html=1;verticalAlign=middle;whiteSpace=wrap;rounded=0;" vertex="1" parent="1">
          <mxGeometry x="180" y="550" width="20" height="20" as="geometry" />
        </mxCell>
        <mxCell id="zXKOy_gRAemTQJg8xbW7-106" value="" style="endArrow=none;html=1;rounded=0;exitX=0.613;exitY=0.05;exitDx=0;exitDy=0;exitPerimeter=0;entryX=0.85;entryY=1.075;entryDx=0;entryDy=0;entryPerimeter=0;" edge="1" parent="1" source="zXKOy_gRAemTQJg8xbW7-100" target="zXKOy_gRAemTQJg8xbW7-33">
          <mxGeometry relative="1" as="geometry">
            <mxPoint x="260" y="550" as="sourcePoint" />
            <mxPoint x="420" y="550" as="targetPoint" />
          </mxGeometry>
        </mxCell>
        <mxCell id="zXKOy_gRAemTQJg8xbW7-107" value="" style="endArrow=none;html=1;rounded=0;exitX=0.875;exitY=0.333;exitDx=0;exitDy=0;exitPerimeter=0;entryX=0;entryY=0.25;entryDx=0;entryDy=0;" edge="1" parent="1" source="zXKOy_gRAemTQJg8xbW7-100" target="zXKOy_gRAemTQJg8xbW7-69">
          <mxGeometry relative="1" as="geometry">
            <mxPoint x="260" y="550" as="sourcePoint" />
            <mxPoint x="420" y="550" as="targetPoint" />
          </mxGeometry>
        </mxCell>
        <mxCell id="zXKOy_gRAemTQJg8xbW7-108" value="&lt;b&gt;&lt;i&gt;&lt;font style=&quot;font-size: 10px;&quot;&gt;Pas Number&lt;/font&gt;&lt;/i&gt;&lt;/b&gt;" style="ellipse;whiteSpace=wrap;html=1;align=center;fontStyle=4;" vertex="1" parent="1">
          <mxGeometry x="-10" y="660" width="80" height="40" as="geometry" />
        </mxCell>
        <mxCell id="zXKOy_gRAemTQJg8xbW7-109" value="&lt;b&gt;&lt;i&gt;&lt;font style=&quot;font-size: 10px;&quot;&gt;Price&lt;/font&gt;&lt;/i&gt;&lt;/b&gt;" style="ellipse;whiteSpace=wrap;html=1;align=center;" vertex="1" parent="1">
          <mxGeometry y="760" width="70" height="40" as="geometry" />
        </mxCell>
        <mxCell id="zXKOy_gRAemTQJg8xbW7-110" value="&lt;b&gt;&lt;i&gt;&lt;font style=&quot;font-size: 10px;&quot;&gt;Dep Date Time&lt;/font&gt;&lt;/i&gt;&lt;/b&gt;" style="ellipse;whiteSpace=wrap;html=1;align=center;" vertex="1" parent="1">
          <mxGeometry x="90" y="780" width="70" height="40" as="geometry" />
        </mxCell>
        <mxCell id="zXKOy_gRAemTQJg8xbW7-111" value="&lt;b&gt;&lt;i&gt;&lt;font style=&quot;font-size: 10px;&quot;&gt;Arr Date Time&lt;/font&gt;&lt;/i&gt;&lt;/b&gt;" style="ellipse;whiteSpace=wrap;html=1;align=center;" vertex="1" parent="1">
          <mxGeometry x="-40" y="710" width="90" height="40" as="geometry" />
        </mxCell>
        <mxCell id="zXKOy_gRAemTQJg8xbW7-112" value="&lt;b&gt;&lt;i&gt;&lt;font style=&quot;font-size: 10px;&quot;&gt;Travel Time&lt;/font&gt;&lt;/i&gt;&lt;/b&gt;" style="ellipse;whiteSpace=wrap;html=1;align=center;" vertex="1" parent="1">
          <mxGeometry x="170" y="770" width="70" height="40" as="geometry" />
        </mxCell>
        <mxCell id="zXKOy_gRAemTQJg8xbW7-113" value="" style="endArrow=none;html=1;rounded=0;entryX=0.5;entryY=0;entryDx=0;entryDy=0;exitX=0.5;exitY=1;exitDx=0;exitDy=0;" edge="1" parent="1" target="zXKOy_gRAemTQJg8xbW7-112" source="zXKOy_gRAemTQJg8xbW7-100">
          <mxGeometry relative="1" as="geometry">
            <mxPoint x="110" y="820" as="sourcePoint" />
            <mxPoint x="50" y="750" as="targetPoint" />
          </mxGeometry>
        </mxCell>
        <mxCell id="zXKOy_gRAemTQJg8xbW7-114" value="" style="endArrow=none;html=1;rounded=0;entryX=0.667;entryY=0.05;entryDx=0;entryDy=0;exitX=0.35;exitY=0.817;exitDx=0;exitDy=0;exitPerimeter=0;entryPerimeter=0;" edge="1" parent="1" target="zXKOy_gRAemTQJg8xbW7-110" source="zXKOy_gRAemTQJg8xbW7-100">
          <mxGeometry relative="1" as="geometry">
            <mxPoint x="110" y="830" as="sourcePoint" />
            <mxPoint x="50" y="750" as="targetPoint" />
          </mxGeometry>
        </mxCell>
        <mxCell id="zXKOy_gRAemTQJg8xbW7-115" value="" style="endArrow=none;html=1;rounded=0;entryX=1;entryY=0.5;entryDx=0;entryDy=0;exitX=0.088;exitY=0.6;exitDx=0;exitDy=0;exitPerimeter=0;" edge="1" parent="1" target="zXKOy_gRAemTQJg8xbW7-111" source="zXKOy_gRAemTQJg8xbW7-100">
          <mxGeometry relative="1" as="geometry">
            <mxPoint x="110" y="850" as="sourcePoint" />
            <mxPoint x="50" y="750" as="targetPoint" />
          </mxGeometry>
        </mxCell>
        <mxCell id="zXKOy_gRAemTQJg8xbW7-116" value="" style="endArrow=none;html=1;rounded=0;exitX=1;exitY=0.5;exitDx=0;exitDy=0;entryX=0;entryY=0.5;entryDx=0;entryDy=0;" edge="1" parent="1" source="zXKOy_gRAemTQJg8xbW7-108" target="zXKOy_gRAemTQJg8xbW7-100">
          <mxGeometry relative="1" as="geometry">
            <mxPoint x="240" y="740" as="sourcePoint" />
            <mxPoint x="400" y="740" as="targetPoint" />
          </mxGeometry>
        </mxCell>
        <mxCell id="zXKOy_gRAemTQJg8xbW7-117" value="" style="endArrow=none;html=1;rounded=0;exitX=0.957;exitY=0.225;exitDx=0;exitDy=0;exitPerimeter=0;entryX=0;entryY=1;entryDx=0;entryDy=0;" edge="1" parent="1" source="zXKOy_gRAemTQJg8xbW7-109" target="zXKOy_gRAemTQJg8xbW7-100">
          <mxGeometry relative="1" as="geometry">
            <mxPoint x="240" y="740" as="sourcePoint" />
            <mxPoint x="400" y="740" as="targetPoint" />
          </mxGeometry>
        </mxCell>
        <mxCell id="zXKOy_gRAemTQJg8xbW7-118" value="&lt;b&gt;&lt;i&gt;&lt;font style=&quot;font-size: 10px;&quot;&gt;Has&lt;/font&gt;&lt;/i&gt;&lt;/b&gt;" style="shape=rhombus;perimeter=rhombusPerimeter;whiteSpace=wrap;html=1;align=center;" vertex="1" parent="1">
          <mxGeometry x="420" y="470" width="90" height="60" as="geometry" />
        </mxCell>
        <mxCell id="zXKOy_gRAemTQJg8xbW7-119" value="" style="endArrow=none;html=1;rounded=0;exitX=1;exitY=0;exitDx=0;exitDy=0;entryX=0;entryY=0.5;entryDx=0;entryDy=0;" edge="1" parent="1" source="zXKOy_gRAemTQJg8xbW7-33" target="zXKOy_gRAemTQJg8xbW7-118">
          <mxGeometry relative="1" as="geometry">
            <mxPoint x="390" y="520" as="sourcePoint" />
            <mxPoint x="550" y="520" as="targetPoint" />
          </mxGeometry>
        </mxCell>
        <mxCell id="zXKOy_gRAemTQJg8xbW7-120" value="" style="endArrow=none;html=1;rounded=0;entryX=0;entryY=0.5;entryDx=0;entryDy=0;exitX=1;exitY=0.5;exitDx=0;exitDy=0;" edge="1" parent="1" source="zXKOy_gRAemTQJg8xbW7-118" target="zXKOy_gRAemTQJg8xbW7-66">
          <mxGeometry relative="1" as="geometry">
            <mxPoint x="390" y="520" as="sourcePoint" />
            <mxPoint x="550" y="520" as="targetPoint" />
          </mxGeometry>
        </mxCell>
        <mxCell id="zXKOy_gRAemTQJg8xbW7-121" value="&lt;b&gt;&lt;i&gt;&lt;font style=&quot;font-size: 10px;&quot;&gt;1&lt;/font&gt;&lt;/i&gt;&lt;/b&gt;" style="text;strokeColor=none;align=center;fillColor=none;html=1;verticalAlign=middle;whiteSpace=wrap;rounded=0;" vertex="1" parent="1">
          <mxGeometry x="730" y="550" width="20" height="20" as="geometry" />
        </mxCell>
        <mxCell id="zXKOy_gRAemTQJg8xbW7-122" value="&lt;b&gt;&lt;i&gt;&lt;font style=&quot;font-size: 10px;&quot;&gt;1&lt;/font&gt;&lt;/i&gt;&lt;/b&gt;" style="text;strokeColor=none;align=center;fillColor=none;html=1;verticalAlign=middle;whiteSpace=wrap;rounded=0;" vertex="1" parent="1">
          <mxGeometry x="280" y="470" width="20" height="20" as="geometry" />
        </mxCell>
        <mxCell id="zXKOy_gRAemTQJg8xbW7-123" value="" style="endArrow=none;html=1;rounded=0;exitX=1;exitY=0.25;exitDx=0;exitDy=0;entryX=0.133;entryY=0.667;entryDx=0;entryDy=0;entryPerimeter=0;" edge="1" parent="1" source="zXKOy_gRAemTQJg8xbW7-33" target="zXKOy_gRAemTQJg8xbW7-118">
          <mxGeometry relative="1" as="geometry">
            <mxPoint x="390" y="520" as="sourcePoint" />
            <mxPoint x="550" y="520" as="targetPoint" />
          </mxGeometry>
        </mxCell>
        <mxCell id="zXKOy_gRAemTQJg8xbW7-124" value="" style="endArrow=none;html=1;rounded=0;entryX=0;entryY=0.75;entryDx=0;entryDy=0;" edge="1" parent="1" source="zXKOy_gRAemTQJg8xbW7-118" target="zXKOy_gRAemTQJg8xbW7-66">
          <mxGeometry relative="1" as="geometry">
            <mxPoint x="390" y="520" as="sourcePoint" />
            <mxPoint x="550" y="520" as="targetPoint" />
          </mxGeometry>
        </mxCell>
        <mxCell id="zXKOy_gRAemTQJg8xbW7-125" value="&lt;b&gt;&lt;i&gt;&lt;font style=&quot;font-size: 10px;&quot;&gt;Keeps&lt;/font&gt;&lt;/i&gt;&lt;/b&gt;" style="shape=rhombus;perimeter=rhombusPerimeter;whiteSpace=wrap;html=1;align=center;" vertex="1" parent="1">
          <mxGeometry x="280" y="230" width="100" height="60" as="geometry" />
        </mxCell>
        <mxCell id="zXKOy_gRAemTQJg8xbW7-126" value="" style="endArrow=none;html=1;rounded=0;exitX=1;exitY=0.5;exitDx=0;exitDy=0;entryX=0;entryY=0;entryDx=0;entryDy=0;" edge="1" parent="1" source="zXKOy_gRAemTQJg8xbW7-125" target="zXKOy_gRAemTQJg8xbW7-41">
          <mxGeometry relative="1" as="geometry">
            <mxPoint x="390" y="330" as="sourcePoint" />
            <mxPoint x="550" y="330" as="targetPoint" />
          </mxGeometry>
        </mxCell>
        <mxCell id="zXKOy_gRAemTQJg8xbW7-128" value="" style="endArrow=none;html=1;rounded=0;exitX=1;exitY=1;exitDx=0;exitDy=0;entryX=0.5;entryY=0;entryDx=0;entryDy=0;" edge="1" parent="1" source="zXKOy_gRAemTQJg8xbW7-1" target="zXKOy_gRAemTQJg8xbW7-125">
          <mxGeometry relative="1" as="geometry">
            <mxPoint x="390" y="330" as="sourcePoint" />
            <mxPoint x="550" y="330" as="targetPoint" />
          </mxGeometry>
        </mxCell>
        <mxCell id="zXKOy_gRAemTQJg8xbW7-129" value="&lt;b&gt;&lt;i&gt;&lt;font style=&quot;font-size: 10px;&quot;&gt;M&lt;/font&gt;&lt;/i&gt;&lt;/b&gt;" style="text;strokeColor=none;align=center;fillColor=none;html=1;verticalAlign=middle;whiteSpace=wrap;rounded=0;" vertex="1" parent="1">
          <mxGeometry x="414" y="310" width="20" height="20" as="geometry" />
        </mxCell>
        <mxCell id="zXKOy_gRAemTQJg8xbW7-130" value="" style="endArrow=none;html=1;rounded=0;exitX=0.85;exitY=1.05;exitDx=0;exitDy=0;exitPerimeter=0;entryX=0.41;entryY=0.083;entryDx=0;entryDy=0;entryPerimeter=0;" edge="1" parent="1" source="zXKOy_gRAemTQJg8xbW7-1" target="zXKOy_gRAemTQJg8xbW7-125">
          <mxGeometry relative="1" as="geometry">
            <mxPoint x="390" y="330" as="sourcePoint" />
            <mxPoint x="550" y="330" as="targetPoint" />
          </mxGeometry>
        </mxCell>
        <mxCell id="zXKOy_gRAemTQJg8xbW7-131" value="&lt;b&gt;&lt;i&gt;&lt;font style=&quot;font-size: 10px;&quot;&gt;1&lt;/font&gt;&lt;/i&gt;&lt;/b&gt;" style="text;strokeColor=none;align=center;fillColor=none;html=1;verticalAlign=middle;whiteSpace=wrap;rounded=0;" vertex="1" parent="1">
          <mxGeometry x="230" y="190" width="20" height="20" as="geometry" />
        </mxCell>
        <mxCell id="zXKOy_gRAemTQJg8xbW7-132" value="" style="endArrow=none;html=1;rounded=0;exitX=1;exitY=0.5;exitDx=0;exitDy=0;entryX=0;entryY=0.25;entryDx=0;entryDy=0;" edge="1" parent="1" target="zXKOy_gRAemTQJg8xbW7-41">
          <mxGeometry relative="1" as="geometry">
            <mxPoint x="374" y="265" as="sourcePoint" />
            <mxPoint x="434" y="315" as="targetPoint" />
          </mxGeometry>
        </mxCell>
      </root>
    </mxGraphModel>
  </diagram>
</mxfile>
